<svg xmlns="http://www.w3.org/2000/svg"  viewBox="0 0 22 21.902" width="24px" height="24px"><path d="M 9.691,14.26 6.411,10.948 9.6,7.764 C 9.336,7.49 9.066,7.204 8.8,6.904 A 5.857,5.857 0 0 1 7.263,3.267 l -6.97,6.97 a 1,1 0 0 0 0,1.414 l 9.956,9.956 a 1,1 0 0 0 1.553,-0.171 C 12.571,20.203 13.447,18.05 11.709,16.312 10.692,15.3 9.7,14.267 9.691,14.26 Z m 2.617,-6.631 3.281,3.311 -3.184,3.185 c 0.264,0.273 0.534,0.56 0.8,0.859 a 5.864,5.864 0 0 1 1.531,3.638 l 6.971,-6.971 a 1,1 0 0 0 0,-1.414 L 11.765,0.3 A 1,1 0 0 0 10.2,0.478 c -0.753,1.248 -1.6,3.408 0.087,5.1 1.021,1.016 2.013,2.044 2.021,2.051 z"/></svg>